<?xml version="1.0"?>
<svg xmlns="http://www.w3.org/2000/svg" xmlns:xlink="http://www.w3.org/1999/xlink" version="1.1" id="Capa_1" x="0px" y="0px" viewBox="0 0 496 496" style="enable-background:new 0 0 496 496;" xml:space="preserve" width="512px" height="512px" class=""><g><g>
	<g>
		<path d="M496,208h-84l-24,32h-8.448c-8.92-10.384-19.424-18.912-31.056-25.4C332.576,131.752,260.744,72,176,72    C78.952,72,0,150.952,0,248s78.952,176,176,176c84.744,0,156.576-59.752,172.496-142.6c11.632-6.488,22.136-15.016,31.056-25.4    H388l24,32h84l-30-40L496,208z M176,408c-88.224,0-160-71.776-160-160S87.776,88,176,88c73.128,0,135.744,48.912,154.296,118.288    c-8.648-2.984-17.704-4.848-26.984-5.696C283.544,147.408,233.128,112,176,112c-74.992,0-136,61.008-136,136s61.008,136,136,136    c57.128,0,107.544-35.408,127.312-88.592c9.28-0.848,18.336-2.712,26.984-5.696C311.744,359.088,249.128,408,176,408z     M198.528,256c-3.312,9.288-12.112,16-22.528,16c-13.232,0-24-10.768-24-24s10.768-24,24-24c10.416,0,19.216,6.712,22.528,16H176    v16H198.528z M176,208c-22.056,0-40,17.944-40,40c0,22.056,17.944,40,40,40c16.192,0,30.096-9.712,36.384-23.576    c7.896,7.528,16.744,13.792,26.288,18.728C226.016,305.704,202.264,320,176,320c-39.696,0-72-32.304-72-72s32.304-72,72-72    c26.264,0,50.016,14.296,62.664,36.848c-9.536,4.936-18.384,11.2-26.28,18.728C206.096,217.712,192.192,208,176,208z M218.52,248    c12.4-13.568,28.144-23.128,45.48-28.088v56.176C246.664,271.128,230.92,261.568,218.52,248z M253.488,206.344    C238.24,177.968,208.648,160,176,160c-48.52,0-88,39.48-88,88s39.48,88,88,88c32.648,0,62.24-17.968,77.488-46.344    c10.352,3.6,21.312,5.552,32.536,6.056C267.16,339.36,224.28,368,176,368c-66.168,0-120-53.832-120-120s53.832-120,120-120    c48.28,0,91.16,28.64,110.016,72.288C274.8,200.792,263.84,202.752,253.488,206.344z M280.008,279.328v-62.656    c3.696-0.416,7.432-0.672,11.216-0.672h1.544c3.784,0,7.52,0.256,11.224,0.672v62.656c-3.696,0.416-7.432,0.672-11.216,0.672    h-1.544C287.448,280,283.712,279.744,280.008,279.328z M320,276.088v-56.176c17.336,4.96,33.08,14.52,45.48,28.088    C353.08,261.568,337.336,271.128,320,276.088z M420,272l-12-16h44l12,16H420z M452,240h-44l12-16h44L452,240z" data-original="#000000" class="active-path" data-old_color="#000000" fill="#DDDDDD"/>
	</g>
</g></g> </svg>
