<?xml version="1.0"?>
<svg xmlns="http://www.w3.org/2000/svg" height="512px" viewBox="0 0 479.99503 479" width="512px" class=""><g><path d="m7.992188 408.492188h64v64c0 3.230468 1.953124 6.152343 4.9375 7.390624.992187.410157 2.03125.609376 3.0625.609376 2.082031 0 4.128906-.816407 5.65625-2.34375l80.898437-80.898438 5.453125 6.601562c1.976562 2.390626 5.167969 3.433594 8.160156 2.648438l29.671875-7.632812 25.882813 16.382812c1.300781.824219 2.789062 1.242188 4.277344 1.242188 1.488281 0 2.976562-.417969 4.28125-1.242188l25.871093-16.382812 29.664063 7.640624c3 .769532 6.183594-.265624 8.160156-2.648437l5.457031-6.601563 80.894531 80.898438c1.546876 1.519531 3.59375 2.335938 5.671876 2.335938 1.035156 0 2.074218-.199219 3.066406-.609376 2.984375-1.238281 4.933594-4.160156 4.933594-7.390624v-64h64c3.234374 0 6.152343-1.953126 7.394531-4.9375 1.238281-2.992188.550781-6.429688-1.738281-8.71875l-67.925782-67.929688c.015625-.109375.0625-.214844.070313-.328125l1.953125-30.574219 23.605468-19.519531c2.394532-1.976563 3.425782-5.160156 2.648438-8.160156l-7.628906-29.671875 16.382812-25.878906c1.65625-2.617188 1.65625-5.953126 0-8.5625l-16.382812-25.871094 7.636718-29.664063c.777344-3-.253906-6.183593-2.644531-8.160156l-23.609375-19.519531-1.953125-30.570313c-.199219-3.09375-2.160156-5.789062-5.039062-6.925781l-28.480469-11.265625-11.265625-28.480469c-1.132813-2.878906-3.832031-4.839844-6.925781-5.039062l-30.578125-1.953125-19.519531-23.605469c-1.976563-2.394531-5.152344-3.417969-8.160157-2.648438l-29.679687 7.617188-25.878906-16.386719c-2.617188-1.6562498-5.945313-1.6562498-8.558594 0l-25.882813 16.386719-29.664062-7.640625c-3.03125-.785156-6.191407.253906-8.160157 2.648437l-19.519531 23.605469-30.566406 1.953125c-3.097656.199219-5.792969 2.160156-6.929687 5.039063l-11.261719 28.480469-28.480469 11.265624c-2.878906 1.136719-4.839844 3.832032-5.039062 6.925782l-1.953126 30.578125-23.609374 19.519531c-2.390626 1.976562-3.421876 5.160156-2.648438 8.160156l7.632812 29.671875-16.382812 25.878907c-1.65625 2.617187-1.65625 5.953124 0 8.5625l16.382812 25.871093-7.640624 29.664063c-.773438 3 .257812 6.183594 2.648437 8.160156l23.609375 19.519531 1.953125 30.566407c.007813.121093.054687.226562.070313.34375l-67.929688 67.929687c-2.2851562 2.289063-2.972656 5.726563-1.734375 8.71875 1.230469 2.992187 4.152344 4.945313 7.382813 4.945313zm392-16c-4.414063 0-8 3.582031-8 8v52.6875l-68.320313-68.320313 3.824219-4.625 30.570312-1.949219c3.09375-.203125 5.792969-2.160156 6.925782-5.042968l11.265624-28.480469 20.558594-8.132813 55.863282 55.863282zm-341.246094-125.105469 7.230468-28.09375c.554688-2.144531.191407-4.410157-.992187-6.28125l-15.519531-24.519531 15.527344-24.519532c1.183593-1.863281 1.539062-4.136718.992187-6.273437l-7.222656-28.105469 22.351562-18.484375c1.695313-1.410156 2.746094-3.457031 2.886719-5.65625l1.839844-28.960937 26.984375-10.671876c2.058593-.816406 3.679687-2.441406 4.496093-4.496093l10.671876-26.984375 28.960937-1.847656c2.199219-.144532 4.25-1.183594 5.65625-2.890626l18.488281-22.351562 28.097656 7.234375c2.140626.550781 4.40625.191406 6.277344-.992187l24.519532-15.527344 24.519531 15.527344c1.867187 1.183593 4.144531 1.542968 6.273437.992187l28.105469-7.226563 18.488281 22.355469c1.40625 1.695313 3.453125 2.742188 5.65625 2.886719l28.957032 1.839844 10.671874 26.984375c.816407 2.054687 2.441407 3.679687 4.496094 4.496093l26.984375 10.671876 1.847657 28.960937c.144531 2.199219 1.183593 4.246094 2.890624 5.65625l22.351563 18.484375-7.234375 28.097656c-.550781 2.144532-.191406 4.40625.992188 6.28125l15.53125 24.519532-15.53125 24.519531c-1.183594 1.863281-1.535157 4.136719-.992188 6.273437l7.226562 28.101563-22.351562 18.488281c-1.699219 1.410156-2.746094 3.457031-2.890625 5.65625l-1.839844 28.960938-26.984375 10.671874c-2.054687.816407-3.679687 2.4375-4.496094 4.496094l-10.671874 26.984375-28.957032 1.847657c-2.203125.144531-4.25 1.183593-5.65625 2.886718l-18.488281 22.351563-28.097656-7.230469c-2.152344-.570312-4.40625-.191406-6.28125.992188l-24.519531 15.527343-24.519532-15.527343c-1.296875-.824219-2.78125-1.242188-4.277344-1.242188-.664062 0-1.335937.082031-1.992187.257812l-28.105469 7.222657-18.488281-22.351563c-1.40625-1.695312-3.457031-2.742187-5.65625-2.886718l-28.960937-1.847657-10.671876-26.984375c-.816406-2.058594-2.4375-3.679687-4.496093-4.496094l-26.984375-10.671874-1.847656-28.960938c-.144532-2.199219-1.183594-4.246094-2.886719-5.65625zm24.414062 69.25 20.554688 8.125 11.261718 28.480469c1.136719 2.882812 3.832032 4.839843 6.929688 5.042968l30.574219 1.949219 3.824219 4.625-68.3125 68.320313v-52.6875c0-4.417969-3.582032-8-8-8h-52.6875zm0 0" data-original="#000000" class="active-path" data-old_color="#000000" fill="#DDDDDD"/><path d="m366.21875 259.226562 14.839844 5.976563c2.0625-5.121094 3.855468-10.414063 5.34375-15.726563l-15.417969-4.296874c-1.320313 4.742187-2.925781 9.472656-4.765625 14.046874zm0 0" data-original="#000000" class="active-path" data-old_color="#000000" fill="#DDDDDD"/><path d="m354.882812 108.972656c-3.609374-4.167968-7.488281-8.175781-11.53125-11.929687l-10.878906 11.730469c3.617188 3.359374 7.089844 6.949218 10.328125 10.671874zm0 0" data-original="#000000" class="active-path" data-old_color="#000000" fill="#DDDDDD"/><path d="m213.328125 358.15625c5.425781.960938 10.960937 1.632812 16.464844 1.992188l1.066406-15.960938c-4.929687-.328125-9.882813-.929688-14.746094-1.792969zm0 0" data-original="#000000" class="active-path" data-old_color="#000000" fill="#DDDDDD"/><path d="m121.722656 141.300781-13.914062-7.90625c-2.734375 4.816407-5.222656 9.808594-7.40625 14.847657l14.6875 6.351562c1.953125-4.511719 4.183594-8.980469 6.632812-13.292969zm0 0" data-original="#000000" class="active-path" data-old_color="#000000" fill="#DDDDDD"/><path d="m347.832031 291.363281 12.679688 9.761719c3.363281-4.378906 6.523437-8.976562 9.386719-13.671875l-13.664063-8.328125c-2.5625 4.207031-5.386719 8.328125-8.402344 12.238281zm0 0" data-original="#000000" class="active-path" data-old_color="#000000" fill="#DDDDDD"/><path d="m374.097656 185.738281 15.785156-2.648437c-.914062-5.445313-2.144531-10.894532-3.648437-16.191406l-15.394531 4.378906c1.335937 4.726562 2.441406 9.597656 3.257812 14.460937zm0 0" data-original="#000000" class="active-path" data-old_color="#000000" fill="#DDDDDD"/><path d="m105.28125 227.292969c-.671875-4.859375-1.085938-9.832031-1.230469-14.792969l-15.992187.464844c.160156 5.527344.621094 11.085937 1.367187 16.519531zm0 0" data-original="#000000" class="active-path" data-old_color="#000000" fill="#DDDDDD"/><path d="m377.488281 143.601562c-2.359375-4.980468-5.015625-9.886718-7.894531-14.582031l-13.632812 8.375c2.578124 4.199219 4.960937 8.59375 7.074218 13.058594zm0 0" data-original="#000000" class="active-path" data-old_color="#000000" fill="#DDDDDD"/><path d="m253.113281 343.859375 1.519531 15.929687c5.488282-.53125 11.007813-1.363281 16.410157-2.480468l-3.25-15.664063c-4.832031 1.007813-9.765625 1.75-14.679688 2.214844zm0 0" data-original="#000000" class="active-path" data-old_color="#000000" fill="#DDDDDD"/><path d="m375.992188 208.492188c0 4.96875-.269532 9.953124-.796876 14.832031l15.902344 1.726562c.59375-5.449219.894532-11.023437.894532-16.71875l-4.75-.257812zm0 0" data-original="#000000" class="active-path" data-old_color="#000000" fill="#DDDDDD"/><path d="m321.480469 317.378906 9.601562 12.808594c4.40625-3.3125 8.679688-6.894531 12.703125-10.664062l-10.925781-11.679688c-3.601563 3.367188-7.425781 6.582031-11.378906 9.535156zm0 0" data-original="#000000" class="active-path" data-old_color="#000000" fill="#DDDDDD"/><path d="m323.808594 81.667969c-4.597656-3.046875-9.421875-5.871094-14.328125-8.402344l-7.320313 14.226563c4.386719 2.253906 8.6875 4.785156 12.808594 7.503906zm0 0" data-original="#000000" class="active-path" data-old_color="#000000" fill="#DDDDDD"/><path d="m107.976562 175.675781-15.527343-3.839843c-1.328125 5.34375-2.367188 10.832031-3.105469 16.304687l15.859375 2.125c.65625-4.902344 1.589844-9.804687 2.773437-14.589844zm0 0" data-original="#000000" class="active-path" data-old_color="#000000" fill="#DDDDDD"/><path d="m112.449219 291.203125c3.007812 4.632813 6.296875 9.136719 9.777343 13.390625l12.390626-10.125c-3.113282-3.816406-6.054688-7.847656-8.75-11.992188zm0 0" data-original="#000000" class="active-path" data-old_color="#000000" fill="#DDDDDD"/><path d="m208.289062 76.203125-3.71875-15.558594c-5.367187 1.277344-10.722656 2.871094-15.90625 4.734375l5.402344 15.066406c4.632813-1.671874 9.421875-3.097656 14.222656-4.242187zm0 0" data-original="#000000" class="active-path" data-old_color="#000000" fill="#DDDDDD"/><path d="m245.144531 72.585938.585938-15.992188c-5.511719-.207031-11.105469-.109375-16.570313.273438l1.121094 15.960937c4.902344-.34375 9.929688-.425781 14.863281-.242187zm0 0" data-original="#000000" class="active-path" data-old_color="#000000" fill="#DDDDDD"/><path d="m173.929688 345.417969c4.96875 2.402343 10.128906 4.554687 15.328124 6.394531l5.335938-15.089844c-4.648438-1.648437-9.257812-3.566406-13.703125-5.710937zm0 0" data-original="#000000" class="active-path" data-old_color="#000000" fill="#DDDDDD"/><path d="m144.25 111.90625-11.273438-11.351562c-3.917968 3.890624-7.664062 8.023437-11.128906 12.296874l12.433594 10.078126c3.097656-3.820313 6.449219-7.535157 9.96875-11.023438zm0 0" data-original="#000000" class="active-path" data-old_color="#000000" fill="#DDDDDD"/><path d="m286.488281 63.738281c-5.261719-1.6875-10.671875-3.101562-16.0625-4.191406l-3.175781 15.679687c4.824219.976563 9.65625 2.242188 14.359375 3.753907zm0 0" data-original="#000000" class="active-path" data-old_color="#000000" fill="#DDDDDD"/><path d="m139.480469 322.507812c4.136719 3.648438 8.511719 7.113282 13.015625 10.289063l9.21875-13.082031c-4.035156-2.839844-7.953125-5.941406-11.65625-9.199219zm0 0" data-original="#000000" class="active-path" data-old_color="#000000" fill="#DDDDDD"/><path d="m173.824219 89.644531-7.796875-13.96875c-4.816406 2.6875-9.53125 5.664063-14.027344 8.863281l9.273438 13.039063c4.023437-2.863281 8.25-5.535156 12.550781-7.933594zm0 0" data-original="#000000" class="active-path" data-old_color="#000000" fill="#DDDDDD"/><path d="m289.121094 335.347656 5.785156 14.917969c5.144531-2 10.230469-4.292969 15.128906-6.839844l-7.386718-14.191406c-4.375 2.273437-8.925782 4.328125-13.527344 6.113281zm0 0" data-original="#000000" class="active-path" data-old_color="#000000" fill="#DDDDDD"/><path d="m110.128906 249.003906-15.28125 4.75c1.640625 5.265625 3.59375 10.496094 5.800782 15.5625l14.664062-6.410156c-1.976562-4.527344-3.71875-9.199219-5.183594-13.902344zm0 0" data-original="#000000" class="active-path" data-old_color="#000000" fill="#DDDDDD"/><path d="m128.371094 175.394531c-.9375 2.929688-.113282 6.128907 2.117187 8.242188l48.875 46.238281-11.53125 65.222656c-.527343 2.992188.679688 6.019532 3.121094 7.824219 2.441406 1.808594 5.6875 2.074219 8.390625.699219l60.648438-30.945313 60.640624 30.945313c1.152344.582031 2.394532.871094 3.640626.871094 1.679687 0 3.351562-.527344 4.761718-1.570313 2.4375-1.804687 3.644532-4.832031 3.117188-7.824219l-11.527344-65.222656 48.871094-46.238281c2.234375-2.113281 3.058594-5.320313 2.121094-8.242188-.9375-2.925781-3.464844-5.0625-6.503907-5.496093l-67.734375-9.550782-30.25-59.488281c-2.734375-5.367187-11.527344-5.367187-14.261718 0l-30.25 59.488281-67.734376 9.550782c-3.050781.433593-5.578124 2.570312-6.511718 5.496093zm80.605468.226563c2.585938-.363282 4.832032-1.96875 6.015626-4.296875l25-49.175781 25 49.175781c1.183593 2.328125 3.433593 3.933593 6.015624 4.296875l55.417969 7.8125-39.9375 37.785156c-1.949219 1.847656-2.847656 4.554688-2.375 7.199219l9.480469 53.648437-49.96875-25.496094c-1.136719-.582031-2.382812-.878906-3.632812-.878906-1.246094 0-2.496094.296875-3.640626.871094l-49.957031 25.503906 9.480469-53.648437c.46875-2.644531-.425781-5.351563-2.378906-7.199219l-39.933594-37.785156zm0 0" data-original="#000000" class="active-path" data-old_color="#000000" fill="#DDDDDD"/><path d="m231.992188 448.492188h16v16h-16zm0 0" data-original="#000000" class="active-path" data-old_color="#000000" fill="#DDDDDD"/><path d="m263.992188 448.492188h16v16h-16zm0 0" data-original="#000000" class="active-path" data-old_color="#000000" fill="#DDDDDD"/><path d="m199.992188 448.492188h16v16h-16zm0 0" data-original="#000000" class="active-path" data-old_color="#000000" fill="#DDDDDD"/></g> </svg>
